<svg version="1.1" viewBox="0.0 0.0 960.0 540.0" fill="none" stroke="none" stroke-linecap="square" stroke-miterlimit="10" xmlns:xlink="http://www.w3.org/1999/xlink" xmlns="http://www.w3.org/2000/svg"><clipPath id="g22e549e68fa_0_122.0"><path d="m0 0l960.0 0l0 540.0l-960.0 0l0 -540.0z" clip-rule="nonzero"/></clipPath><g clip-path="url(#g22e549e68fa_0_122.0)"><path fill="#ffffff" d="m0 0l960.0 0l0 540.0l-960.0 0z" fill-rule="evenodd"/><path fill="#c9daf8" d="m450.58923 76.850395l9.35434 0l0 490.80316l-9.35434 0z" fill-rule="evenodd"/><path fill="#eeeeee" d="m394.22833 12.808655l0 0c0 -7.0740247 5.7346497 -12.808655 12.808655 -12.808655l96.46146 0c3.3970642 0 6.654999 1.3494794 9.057098 3.7515683c2.4020386 2.4020886 3.7515259 5.6600204 3.7515259 9.057087l0 51.233086c0 7.0740204 -5.734619 12.808655 -12.808624 12.808655l-96.46146 0c-7.074005 0 -12.808655 -5.7346344 -12.808655 -12.808655z" fill-rule="evenodd"/><path stroke="#595959" stroke-width="1.0" stroke-linejoin="round" stroke-linecap="butt" d="m394.22833 12.808655l0 0c0 -7.0740247 5.7346497 -12.808655 12.808655 -12.808655l96.46146 0c3.3970642 0 6.654999 1.3494794 9.057098 3.7515683c2.4020386 2.4020886 3.7515259 5.6600204 3.7515259 9.057087l0 51.233086c0 7.0740204 -5.734619 12.808655 -12.808624 12.808655l-96.46146 0c-7.074005 0 -12.808655 -5.7346344 -12.808655 -12.808655z" fill-rule="evenodd"/><path fill="#000000" d="m422.51663 34.345196l0 -13.359375l9.65625 0l0 1.578125l-7.875 0l0 4.09375l7.375 0l0 1.5625l-7.375 0l0 4.546875l8.1875 0l0 1.578125l-9.96875 0zm12.162323 0l0 -13.359375l1.640625 0l0 13.359375l-1.640625 0zm10.816711 -3.109375l1.6875 0.203125q-0.40625 1.484375 -1.484375 2.3125q-1.078125 0.8125 -2.765625 0.8125q-2.125 0 -3.375 -1.296875q-1.234375 -1.3125 -1.234375 -3.671875q0 -2.453125 1.25 -3.796875q1.265625 -1.34375 3.265625 -1.34375q1.9375 0 3.15625 1.328125q1.234375 1.3125 1.234375 3.703125q0 0.15625 0 0.4375l-7.21875 0q0.09375 1.59375 0.90625 2.453125q0.8125 0.84375 2.015625 0.84375q0.90625 0 1.546875 -0.46875q0.640625 -0.484375 1.015625 -1.515625zm-5.390625 -2.65625l5.40625 0q-0.109375 -1.21875 -0.625 -1.828125q-0.78125 -0.953125 -2.03125 -0.953125q-1.125 0 -1.90625 0.765625q-0.765625 0.75 -0.84375 2.015625zm15.453827 2.21875l1.609375 0.21875q-0.265625 1.65625 -1.359375 2.609375q-1.078125 0.9375 -2.671875 0.9375q-1.984375 0 -3.1875 -1.296875q-1.203125 -1.296875 -1.203125 -3.71875q0 -1.578125 0.515625 -2.75q0.515625 -1.171875 1.578125 -1.75q1.0625 -0.59375 2.3125 -0.59375q1.578125 0 2.578125 0.796875q1.0 0.796875 1.28125 2.265625l-1.59375 0.234375q-0.234375 -0.96875 -0.8125 -1.453125q-0.578125 -0.5 -1.390625 -0.5q-1.234375 0 -2.015625 0.890625q-0.78125 0.890625 -0.78125 2.8125q0 1.953125 0.75 2.84375q0.75 0.875 1.953125 0.875q0.96875 0 1.609375 -0.59375q0.65625 -0.59375 0.828125 -1.828125zm6.59375 2.078125l0.234375 1.453125q-0.6875 0.140625 -1.234375 0.140625q-0.890625 0 -1.390625 -0.28125q-0.484375 -0.28125 -0.6875 -0.734375q-0.203125 -0.46875 -0.203125 -1.9375l0 -5.578125l-1.203125 0l0 -1.265625l1.203125 0l0 -2.390625l1.625 -0.984375l0 3.375l1.65625 0l0 1.265625l-1.65625 0l0 5.671875q0 0.6875 0.078125 0.890625q0.09375 0.203125 0.28125 0.328125q0.203125 0.109375 0.578125 0.109375q0.265625 0 0.71875 -0.0625zm1.5895691 1.46875l0 -9.671875l1.46875 0l0 1.46875q0.5625 -1.03125 1.03125 -1.359375q0.484375 -0.328125 1.0625 -0.328125q0.828125 0 1.6875 0.53125l-0.5625 1.515625q-0.609375 -0.359375 -1.203125 -0.359375q-0.546875 0 -0.96875 0.328125q-0.421875 0.328125 -0.609375 0.890625q-0.28125 0.875 -0.28125 1.921875l0 5.0625l-1.625 0zm5.618927 -4.84375q0 -2.6875 1.484375 -3.96875q1.25 -1.078125 3.046875 -1.078125q2.0 0 3.265625 1.3125q1.265625 1.296875 1.265625 3.609375q0 1.859375 -0.5625 2.9375q-0.5625 1.0625 -1.640625 1.65625q-1.0625 0.59375 -2.328125 0.59375q-2.03125 0 -3.28125 -1.296875q-1.25 -1.3125 -1.25 -3.765625zm1.6875 0q0 1.859375 0.796875 2.796875q0.8125 0.921875 2.046875 0.921875q1.21875 0 2.03125 -0.921875q0.8125 -0.9375 0.8125 -2.84375q0 -1.796875 -0.8125 -2.71875q-0.8125 -0.921875 -2.03125 -0.921875q-1.234375 0 -2.046875 0.921875q-0.796875 0.90625 -0.796875 2.765625zm9.297577 4.84375l0 -9.671875l1.46875 0l0 1.375q1.0625 -1.59375 3.078125 -1.59375q0.875 0 1.609375 0.3125q0.734375 0.3125 1.09375 0.828125q0.375 0.5 0.515625 1.203125q0.09375 0.453125 0.09375 1.59375l0 5.953125l-1.640625 0l0 -5.890625q0 -1.0 -0.203125 -1.484375q-0.1875 -0.5 -0.671875 -0.796875q-0.484375 -0.296875 -1.140625 -0.296875q-1.046875 0 -1.8125 0.671875q-0.75 0.65625 -0.75 2.515625l0 5.28125l-1.640625 0z" fill-rule="nonzero"/><path fill="#000000" d="m432.2592 56.345192l0 -13.359375l5.015625 0q1.53125 0 2.453125 0.40625q0.921875 0.40625 1.4375 1.25q0.53125 0.84375 0.53125 1.765625q0 0.859375 -0.46875 1.625q-0.453125 0.75 -1.390625 1.203125q1.203125 0.359375 1.859375 1.21875q0.65625 0.859375 0.65625 2.015625q0 0.9375 -0.40625 1.75q-0.390625 0.796875 -0.984375 1.234375q-0.578125 0.4375 -1.453125 0.671875q-0.875 0.21875 -2.15625 0.21875l-5.09375 0zm1.78125 -7.75l2.875 0q1.1875 0 1.6875 -0.140625q0.671875 -0.203125 1.015625 -0.671875q0.34375 -0.46875 0.34375 -1.171875q0 -0.65625 -0.328125 -1.15625q-0.3125 -0.515625 -0.90625 -0.703125q-0.59375 -0.1875 -2.03125 -0.1875l-2.65625 0l0 4.03125zm0 6.171875l3.3125 0q0.859375 0 1.203125 -0.0625q0.609375 -0.109375 1.015625 -0.359375q0.421875 -0.265625 0.6875 -0.75q0.265625 -0.484375 0.265625 -1.125q0 -0.75 -0.390625 -1.296875q-0.375 -0.546875 -1.0625 -0.765625q-0.671875 -0.234375 -1.953125 -0.234375l-3.078125 0l0 4.59375zm17.162323 -1.53125l1.6875 0.203125q-0.40625 1.484375 -1.484375 2.3125q-1.078125 0.8125 -2.765625 0.8125q-2.125 0 -3.375 -1.296875q-1.234375 -1.3125 -1.234375 -3.671875q0 -2.453125 1.25 -3.796875q1.265625 -1.34375 3.265625 -1.34375q1.9375 0 3.15625 1.328125q1.234375 1.3125 1.234375 3.703125q0 0.15625 0 0.4375l-7.21875 0q0.09375 1.59375 0.90625 2.453125q0.8125 0.84375 2.015625 0.84375q0.90625 0 1.546875 -0.46875q0.640625 -0.484375 1.015625 -1.515625zm-5.390625 -2.65625l5.40625 0q-0.109375 -1.21875 -0.625 -1.828125q-0.78125 -0.953125 -2.03125 -0.953125q-1.125 0 -1.90625 0.765625q-0.765625 0.75 -0.84375 2.015625zm15.453827 4.578125q-0.921875 0.765625 -1.765625 1.09375q-0.828125 0.3125 -1.796875 0.3125q-1.59375 0 -2.453125 -0.78125q-0.859375 -0.78125 -0.859375 -1.984375q0 -0.71875 0.328125 -1.296875q0.328125 -0.59375 0.84375 -0.9375q0.53125 -0.359375 1.1875 -0.546875q0.46875 -0.125 1.453125 -0.25q1.984375 -0.234375 2.921875 -0.5625q0.015625 -0.34375 0.015625 -0.421875q0 -1.0 -0.46875 -1.421875q-0.625 -0.546875 -1.875 -0.546875q-1.15625 0 -1.703125 0.40625q-0.546875 0.40625 -0.8125 1.421875l-1.609375 -0.21875q0.21875 -1.015625 0.71875 -1.640625q0.5 -0.640625 1.453125 -0.984375q0.953125 -0.34375 2.1875 -0.34375q1.25 0 2.015625 0.296875q0.78125 0.28125 1.140625 0.734375q0.375 0.4375 0.515625 1.109375q0.078125 0.421875 0.078125 1.515625l0 2.1875q0 2.28125 0.109375 2.890625q0.109375 0.59375 0.40625 1.15625l-1.703125 0q-0.265625 -0.515625 -0.328125 -1.1875zm-0.140625 -3.671875q-0.890625 0.375 -2.671875 0.625q-1.015625 0.140625 -1.4375 0.328125q-0.421875 0.1875 -0.65625 0.53125q-0.21875 0.34375 -0.21875 0.78125q0 0.65625 0.5 1.09375q0.5 0.4375 1.453125 0.4375q0.9375 0 1.671875 -0.40625q0.75 -0.421875 1.09375 -1.140625q0.265625 -0.5625 0.265625 -1.640625l0 -0.609375zm4.2038574 4.859375l0 -9.671875l1.46875 0l0 1.359375q0.453125 -0.71875 1.203125 -1.140625q0.765625 -0.4375 1.71875 -0.4375q1.078125 0 1.765625 0.453125q0.6875 0.4375 0.96875 1.234375q1.15625 -1.6875 2.984375 -1.6875q1.453125 0 2.21875 0.796875q0.78125 0.796875 0.78125 2.453125l0 6.640625l-1.640625 0l0 -6.09375q0 -0.984375 -0.15625 -1.40625q-0.15625 -0.4375 -0.578125 -0.703125q-0.421875 -0.265625 -0.984375 -0.265625q-1.015625 0 -1.6875 0.6875q-0.671875 0.671875 -0.671875 2.15625l0 5.625l-1.640625 0l0 -6.28125q0 -1.09375 -0.40625 -1.640625q-0.40625 -0.546875 -1.3125 -0.546875q-0.6875 0 -1.28125 0.359375q-0.59375 0.359375 -0.859375 1.0625q-0.25 0.703125 -0.25 2.03125l0 5.015625l-1.640625 0z" fill-rule="nonzero"/><path fill="#fce5cd" d="m686.6937 77.79435l5.763794 7.370079l-595.559 465.51184l-5.7637863 -7.370117z" fill-rule="evenodd"/><path fill="#eeeeee" d="m704.9986 -2.792876l0 0c5.5751343 -4.3545837 13.625366 -3.3655622 17.980652 2.2090425l59.377747 76.00155c2.0914917 2.6770172 3.0337524 6.075096 2.6195068 9.446701c-0.41418457 3.3715973 -2.151001 6.4405365 -4.828308 8.531685l-40.377502 31.537743c-5.5751343 4.354576 -13.625366 3.3655624 -17.980652 -2.2090454l-59.377747 -76.00155c-4.3552856 -5.574604 -3.366394 -13.623802 2.2088013 -17.978384z" fill-rule="evenodd"/><path stroke="#595959" stroke-width="1.0" stroke-linejoin="round" stroke-linecap="butt" d="m704.9986 -2.792876l0 0c5.5751343 -4.3545837 13.625366 -3.3655622 17.980652 2.2090425l59.377747 76.00155c2.0914917 2.6770172 3.0337524 6.075096 2.6195068 9.446701c-0.41418457 3.3715973 -2.151001 6.4405365 -4.828308 8.531685l-40.377502 31.537743c-5.5751343 4.354576 -13.625366 3.3655624 -17.980652 -2.2090454l-59.377747 -76.00155c-4.3552856 -5.574604 -3.366394 -13.623802 2.2088013 -17.978384z" fill-rule="evenodd"/><path fill="#000000" d="m688.2746 28.650858l10.528442 -8.223452l1.0870361 1.3913422l-10.528442 8.22345l-1.0870361 -1.3913403zm6.3254395 0.22871971q2.118042 -1.6543083 4.041626 -1.2732773q1.6192627 0.321373 2.7254639 1.7373409q1.2313232 1.5760326 0.97613525 3.3812847q-0.24285889 1.7956352 -2.0653076 3.2191086q-1.4653931 1.1445503 -2.661316 1.3649368q-1.1836548 0.21076965 -2.3153687 -0.27332306q-1.1220703 -0.47178268 -1.9012451 -1.4691162q-1.2505493 -1.6006584 -0.9980469 -3.383976q0.2647705 -1.7929401 2.198059 -3.3029785zm1.0389404 1.3297787q-1.465332 1.1445503 -1.713562 2.3495846q-0.22631836 1.2077293 0.5336304 2.180439q0.7503052 0.9603958 1.9770508 1.0331917q1.2390747 0.063179016 2.741333 -1.1102257q1.4161377 -1.1060791 1.642456 -2.3138084q0.22625732 -1.2077293 -0.52404785 -2.1681232q-0.75994873 -0.97270775 -1.9866943 -1.0455055q-1.204773 -0.07010269 -2.670166 1.0744476zm1.9067993 10.30826l7.6223145 -5.9535866l0.90423584 1.1573982l-1.0836182 0.8463898q1.9101562 -0.14377594 3.151062 1.4445724q0.5386963 0.68951416 0.7445679 1.4605751q0.20581055 0.77106094 0.020751953 1.3716507q-0.16320801 0.6032829 -0.6307373 1.1469116q-0.29937744 0.35280228 -1.1983032 1.0549202l-4.6916504 3.664486l-1.0100708 -1.292839l4.642395 -3.6260147q0.78808594 -0.6155548 1.0447388 -1.0737839q0.2786255 -0.45552826 0.2144165 -1.0199699q-0.06427002 -0.56443787 -0.46826172 -1.0815735q-0.64453125 -0.824955 -1.6453857 -1.0147018q-0.9789429 -0.18705368 -2.444275 0.95749664l-4.1621704 3.250908l-1.0100098 -1.292839zm9.655884 12.359268l10.528442 -8.2234535l3.0878906 3.9523964q0.942749 1.2066498 1.1901245 2.1831741q0.24737549 0.97652054 -0.100097656 1.9022179q-0.33789062 0.93801117 -1.0644531 1.5054779q-0.6772461 0.5289917 -1.5692139 0.6308937q-0.87005615 0.104599 -1.8043213 -0.35524368q0.45751953 1.1693001 0.18426514 2.2154274q-0.2732544 1.0461311 -1.1845093 1.7578697q-0.73883057 0.5770836 -1.6292725 0.7570915q-0.86846924 0.18270111 -1.5787964 -0.01587677q-0.7007446 -0.18626404 -1.4241333 -0.73151016q-0.7111206 -0.55485916 -1.4998779 -1.5645065l-3.1360474 -4.013958zm7.2044067 -3.366909l1.7699585 2.265545q0.73114014 0.93577194 1.1497803 1.2432175q0.57373047 0.40441132 1.1547852 0.38675308q0.58099365 -0.017662048 1.1351318 -0.4504776q0.5172119 -0.40395737 0.7092285 -0.9703026q0.21398926 -0.56365204 -0.0037841797 -1.1469536q-0.21777344 -0.58330154 -1.1027832 -1.7160759l-1.635315 -2.0931702l-3.177002 2.4814644zm-4.8640137 3.799137l2.0393066 2.6103058q0.52911377 0.6772003 0.789978 0.90961075q0.46136475 0.4128685 0.9085083 0.579113q0.46905518 0.16893768 1.0143433 0.080093384q0.54522705 -0.0888443 1.0501099 -0.4831848q0.59106445 -0.4616661 0.7815552 -1.1061172q0.20013428 -0.6321411 -0.050720215 -1.3085556q-0.22894287 -0.6737175 -1.0177612 -1.6833649l-1.8950195 -2.4256134l-3.6203003 2.827713zm11.772827 12.581627l0.8787842 1.4548111q-1.4199219 0.59358215 -2.7363281 0.2537613q-1.3040771 -0.34944153 -2.3429565 -1.6792221q-1.3082886 -1.67453 -1.0557861 -3.4578514q0.27441406 -1.7806282 2.13385 -3.232956q1.9332886 -1.5100365 3.7618408 -1.352169q1.8381958 0.17017746 3.069519 1.746212q1.19281 1.5267792 0.89642334 3.3047104q-0.27441406 1.7806282 -2.1584473 3.2521935q-0.12310791 0.09617615 -0.3447876 0.26930237l-4.444275 -5.688492q-1.1983032 1.0549202 -1.3753052 2.2241783q-0.16473389 1.1596413 0.57592773 2.1077232q0.5579834 0.7141342 1.3217773 0.9304199q0.77612305 0.20666504 1.8197632 -0.13262177zm-1.2254028 -5.8829765l3.3283691 4.260212q0.89312744 -0.83639526 1.0559692 -1.6178246q0.2701416 -1.2023392 -0.49945068 -2.1873589q-0.6925659 -0.8865204 -1.7769165 -1.0308723q-1.062439 -0.14165878 -2.1079712 0.5758438zm5.90625 14.9959755q-1.1709595 -0.2551651 -1.9490356 -0.718071q-0.7561035 -0.46022034 -1.3525391 -1.2236099q-0.9812012 -1.2558975 -0.89453125 -2.414009q0.08660889 -1.158104 1.03479 -1.8986969q0.56640625 -0.4424286 1.22406 -0.53972626q0.6699219 -0.106918335 1.2583008 0.08779907q0.6102905 0.19741821 1.1620483 0.59913635q0.38708496 0.29244232 1.0916748 0.9912033q1.4063721 1.4194489 2.2421265 1.9562302q0.28051758 -0.19927979 0.34210205 -0.24737549q0.78808594 -0.6155548 0.8319702 -1.2446213q0.046203613 -0.82914734 -0.72332764 -1.8141632q-0.711853 -0.9111481 -1.3687134 -1.0920258q-0.65686035 -0.18087769 -1.6207886 0.23498535l-0.8184204 -1.4028702q0.9350586 -0.45279694 1.7354736 -0.44351196q0.8126831 -3.2806396E-4 1.6704102 0.5391464q0.857666 0.5394821 1.6176147 1.5121918q0.7695923 0.9850235 1.006958 1.7710876q0.25933838 0.78876495 0.12347412 1.3508835q-0.1138916 0.5648117 -0.55682373 1.0892029q-0.2843628 0.32125092 -1.1463623 0.99451447l-1.723938 1.3465347q-1.7978516 1.4042358 -2.2107544 1.8655319q-0.40057373 0.45167542 -0.6611328 1.031868l-1.048523 -1.3420944q0.24285889 -0.5267105 0.7338867 -0.9895401zm2.80719 -2.3710632q-0.8438721 -0.47099304 -2.1375122 -1.7207565q-0.736084 -0.713768 -1.1436157 -0.93079376q-0.4074707 -0.21702576 -0.8226929 -0.19011688q-0.4055786 0.039215088 -0.7503662 0.30851746q-0.5172119 0.40396118 -0.5541382 1.067276q-0.036987305 0.6633148 0.5498047 1.4143906q0.5772095 0.73876953 1.3494873 1.0673981q0.79418945 0.33132172 1.5722656 0.15977478q0.60687256 -0.13693237 1.4564819 -0.8005829l0.48028564 -0.3751068zm-1.2415161 6.3039246l7.6223145 -5.9535904l0.90423584 1.157402l-1.0712891 0.8367691q0.84539795 -0.085357666 1.6395874 0.24596405q0.8161621 0.33402252 1.4029541 1.0850983q0.6637573 0.84957886 0.72991943 1.6702652q0.07849121 0.8110657 -0.3764038 1.5232162q2.041748 -0.12760162 3.1672363 1.3129883q0.8946533 1.1450882 0.7379761 2.2389297q-0.14703369 1.106163 -1.4522705 2.125679l-5.2334595 4.087677l-1.0100708 -1.292839l4.80249 -3.7510452q0.77575684 -0.6059418 1.0120239 -0.9887543q0.24859619 -0.39243317 0.19824219 -0.8883896q-0.05041504 -0.4959488 -0.39672852 -0.939209q-0.62524414 -0.8003311 -1.5807495 -0.90657806q-0.94311523 -0.115875244 -2.112976 0.79784393l-4.4329834 3.4625015l-1.0100708 -1.292839l4.9501953 -3.8664627q0.8619995 -0.67326355 1.0428467 -1.3300323q0.1809082 -0.65676117 -0.37701416 -1.370903q-0.4232788 -0.5417633 -1.0720215 -0.78842926q-0.6488037 -0.24666595 -1.3664551 -0.023170471q-0.7080078 0.23580933 -1.7546997 1.0533447l-3.9528198 3.0874023l-1.0100098 -1.292839z" fill-rule="nonzero"/><path fill="#000000" fill-opacity="0.0" d="m455.5328 411.63516l0.03149414 -228.09448" fill-rule="evenodd"/><path stroke="#595959" stroke-width="1.0" stroke-linejoin="round" stroke-linecap="butt" stroke-dasharray="4.0,3.0" d="m455.53363 405.63516l0.029846191 -216.09448" fill-rule="evenodd"/><path fill="#595959" stroke="#595959" stroke-width="1.0" stroke-linecap="butt" d="m453.8819 405.63495l1.651123 4.53833l1.6523438 -4.5378723z" fill-rule="evenodd"/><path fill="#595959" stroke="#595959" stroke-width="1.0" stroke-linecap="butt" d="m457.2152 189.54091l-1.6510925 -4.53833l-1.6523743 4.5378723z" fill-rule="evenodd"/><path fill="#eeeeee" d="m369.81104 240.99738l64.2677 0l33.40158 33.40158l0 33.40158l-97.66928 0z" fill-rule="evenodd"/><path stroke="#595959" stroke-width="1.0" stroke-linejoin="round" stroke-linecap="butt" d="m369.81104 240.99738l64.2677 0l33.40158 33.40158l0 33.40158l-97.66928 0z" fill-rule="evenodd"/><path fill="#eeeeee" d="m467.4672 274.03412l68.944855 0l0 33.763794l-68.944855 0z" fill-rule="evenodd"/><path stroke="#595959" stroke-width="1.0" stroke-linejoin="round" stroke-linecap="butt" d="m467.4672 274.03412l68.944855 0l0 33.763794l-68.944855 0z" fill-rule="evenodd"/><path fill="#000000" fill-opacity="0.0" d="m569.9554 373.98425l-211.59055 -207.9685" fill-rule="evenodd"/><path stroke="#595959" stroke-width="1.0" stroke-linejoin="round" stroke-linecap="butt" stroke-dasharray="4.0,3.0" d="m565.6763 369.77838l-203.03232 -199.55678" fill-rule="evenodd"/><path fill="#595959" stroke="#595959" stroke-width="1.0" stroke-linecap="butt" d="m564.51843 370.9564l4.394348 2.0031128l-2.0786743 -4.3591003z" fill-rule="evenodd"/><path fill="#595959" stroke="#595959" stroke-width="1.0" stroke-linecap="butt" d="m363.80176 169.04361l-4.3943176 -2.0030975l2.0786743 4.359085z" fill-rule="evenodd"/><path fill="#000000" fill-opacity="0.0" d="m463.44882 160.48032l82.04721 0l0 42.015747l-82.04721 0z" fill-rule="evenodd"/><path fill="#000000" fill-opacity="0.0" d="m452.6509 138.17061l199.3386 0l0 37.165344l-199.3386 0z" fill-rule="evenodd"/><path fill="#000000" d="m462.80716 161.25061l0 -10.484375l7.59375 0l0 1.234375l-6.203125 0l0 3.203125l5.796875 0l0 1.234375l-5.796875 0l0 3.578125l6.4375 0l0 1.234375l-7.828125 0zm14.572479 0l0 -1.109375q-0.890625 1.28125 -2.421875 1.28125q-0.671875 0 -1.25 -0.25q-0.578125 -0.265625 -0.875 -0.65625q-0.28125 -0.390625 -0.390625 -0.953125q-0.078125 -0.375 -0.078125 -1.203125l0 -4.703125l1.28125 0l0 4.203125q0 1.015625 0.078125 1.359375q0.125 0.515625 0.515625 0.8125q0.40625 0.28125 0.984375 0.28125q0.578125 0 1.078125 -0.296875q0.515625 -0.296875 0.71875 -0.8125q0.21875 -0.515625 0.21875 -1.484375l0 -4.0625l1.28125 0l0 7.59375l-1.140625 0zm8.119873 -2.78125l1.265625 0.15625q-0.203125 1.3125 -1.0625 2.0625q-0.84375 0.734375 -2.09375 0.734375q-1.5625 0 -2.515625 -1.015625q-0.9375 -1.03125 -0.9375 -2.921875q0 -1.234375 0.40625 -2.15625q0.40625 -0.921875 1.234375 -1.375q0.84375 -0.46875 1.8125 -0.46875q1.25 0 2.03125 0.625q0.78125 0.625 1.015625 1.765625l-1.265625 0.203125q-0.171875 -0.765625 -0.625 -1.15625q-0.453125 -0.390625 -1.09375 -0.390625q-0.984375 0 -1.59375 0.703125q-0.609375 0.703125 -0.609375 2.203125q0 1.53125 0.578125 2.234375q0.59375 0.6875 1.546875 0.6875q0.75 0 1.265625 -0.453125q0.515625 -0.46875 0.640625 -1.4375zm7.578125 0.328125l1.328125 0.171875q-0.3125 1.171875 -1.171875 1.8125q-0.84375 0.640625 -2.171875 0.640625q-1.671875 0 -2.65625 -1.015625q-0.96875 -1.03125 -0.96875 -2.890625q0 -1.921875 0.984375 -2.96875q1.0 -1.0625 2.578125 -1.0625q1.515625 0 2.484375 1.03125q0.96875 1.03125 0.96875 2.921875q0 0.109375 -0.015625 0.34375l-5.65625 0q0.0625 1.25 0.703125 1.921875q0.640625 0.65625 1.59375 0.65625q0.703125 0 1.203125 -0.359375q0.5 -0.375 0.796875 -1.203125zm-4.234375 -2.078125l4.25 0q-0.09375 -0.953125 -0.484375 -1.4375q-0.625 -0.75 -1.609375 -0.75q-0.875 0 -1.484375 0.59375q-0.609375 0.59375 -0.671875 1.59375zm7.1823425 4.53125l0 -7.59375l1.15625 0l0 1.078125q0.84375 -1.25 2.421875 -1.25q0.6875 0 1.265625 0.25q0.578125 0.234375 0.859375 0.640625q0.28125 0.40625 0.40625 0.953125q0.0625 0.359375 0.0625 1.25l0 4.671875l-1.28125 0l0 -4.625q0 -0.78125 -0.15625 -1.171875q-0.15625 -0.390625 -0.546875 -0.625q-0.375 -0.234375 -0.890625 -0.234375q-0.8125 0 -1.421875 0.53125q-0.59375 0.515625 -0.59375 1.96875l0 4.15625l-1.28125 0zm10.963623 -1.15625l0.1875 1.140625q-0.546875 0.109375 -0.984375 0.109375q-0.6875 0 -1.078125 -0.21875q-0.390625 -0.21875 -0.546875 -0.578125q-0.15625 -0.359375 -0.15625 -1.515625l0 -4.375l-0.953125 0l0 -1.0l0.953125 0l0 -1.890625l1.28125 -0.765625l0 2.65625l1.296875 0l0 1.0l-1.296875 0l0 4.4375q0 0.546875 0.0625 0.71875q0.078125 0.15625 0.21875 0.25q0.15625 0.078125 0.453125 0.078125q0.203125 0 0.5625 -0.046875zm1.2438354 1.15625l0 -7.59375l1.15625 0l0 1.140625q0.453125 -0.796875 0.828125 -1.046875q0.375 -0.265625 0.8125 -0.265625q0.65625 0 1.3281555 0.40625l-0.43753052 1.203125q-0.46875 -0.28125 -0.953125 -0.28125q-0.421875 0 -0.765625 0.25q-0.328125 0.25 -0.46875 0.703125q-0.21875 0.6875 -0.21875 1.5l0 3.984375l-1.28125 0zm4.8962708 -9.015625l0 -1.46875l1.296875 0l0 1.46875l-1.296875 0zm0 9.015625l0 -7.59375l1.296875 0l0 7.59375l-1.296875 0zm8.20929 -2.78125l1.265625 0.15625q-0.203125 1.3125 -1.0625 2.0625q-0.84375 0.734375 -2.09375 0.734375q-1.5625 0 -2.515625 -1.015625q-0.9375 -1.03125 -0.9375 -2.921875q0 -1.234375 0.40625 -2.15625q0.40625 -0.921875 1.234375 -1.375q0.84375 -0.46875 1.8125 -0.46875q1.25 0 2.03125 0.625q0.78125 0.625 1.015625 1.765625l-1.265625 0.203125q-0.171875 -0.765625 -0.625 -1.15625q-0.453125 -0.390625 -1.09375 -0.390625q-0.984375 0 -1.59375 0.703125q-0.609375 0.703125 -0.609375 2.203125q0 1.53125 0.578125 2.234375q0.59375 0.6875 1.546875 0.6875q0.75 0 1.265625 -0.453125q0.515625 -0.46875 0.640625 -1.4375zm4.6533203 2.78125l4.015625 -10.484375l1.5 0l4.296875 10.484375l-1.578125 0l-1.234375 -3.171875l-4.375 0l-1.15625 3.171875l-1.46875 0zm3.015625 -4.3125l3.5625 0l-1.09375 -2.90625q-0.5 -1.3125 -0.75 -2.171875q-0.203125 1.015625 -0.5625 2.0l-1.15625 3.078125zm6.88501 4.3125l2.78125 -3.953125l-2.578125 -3.640625l1.609375 0l1.171875 1.78125q0.328125 0.5 0.53125 0.84375q0.3125 -0.46875 0.578125 -0.828125l1.28125 -1.796875l1.53125 0l-2.625 3.578125l2.828125 4.015625l-1.578125 0l-1.5625 -2.359375l-0.40625 -0.640625l-2.0 3.0l-1.5625 0zm8.1875 -9.015625l0 -1.46875l1.296875 0l0 1.46875l-1.296875 0zm0 9.015625l0 -7.59375l1.296875 0l0 7.59375l-1.296875 0zm2.7405396 -2.265625l1.265625 -0.203125q0.109375 0.765625 0.59375 1.171875q0.5 0.40625 1.375 0.40625q0.890625 0 1.3125 -0.359375q0.4375 -0.359375 0.4375 -0.84375q0 -0.4375 -0.375 -0.6875q-0.265625 -0.171875 -1.3125 -0.4375q-1.421875 -0.359375 -1.96875 -0.609375q-0.546875 -0.265625 -0.828125 -0.734375q-0.28125 -0.46875 -0.28125 -1.015625q0 -0.515625 0.21875 -0.9375q0.234375 -0.4375 0.640625 -0.734375q0.296875 -0.21875 0.8125 -0.359375q0.53125 -0.15625 1.125 -0.15625q0.890625 0 1.5625 0.265625q0.671875 0.25 1.0 0.6875q0.328125 0.4375 0.4375 1.171875l-1.25 0.171875q-0.09375 -0.578125 -0.5 -0.90625q-0.40625 -0.34375 -1.15625 -0.34375q-0.890625 0 -1.28125 0.296875q-0.375 0.296875 -0.375 0.6875q0 0.25 0.15625 0.453125q0.15625 0.203125 0.5 0.34375q0.1875 0.078125 1.140625 0.328125q1.359375 0.359375 1.890625 0.59375q0.546875 0.234375 0.859375 0.6875q0.3125 0.4375 0.3125 1.09375q0 0.640625 -0.375 1.21875q-0.375 0.5625 -1.09375 0.875q-0.703125 0.3125 -1.59375 0.3125q-1.484375 0 -2.265625 -0.609375q-0.765625 -0.625 -0.984375 -1.828125z" fill-rule="nonzero"/><path fill="#000000" fill-opacity="0.0" d="m274.3491 183.54068l199.33856 0l0 37.16536l-199.33856 0z" fill-rule="evenodd"/><path fill="#000000" d="m284.00534 203.24568l1.3125 -0.109375q0.09375 0.78125 0.421875 1.296875q0.34375 0.5 1.0625 0.8125q0.71875 0.3125 1.609375 0.3125q0.796875 0 1.40625 -0.234375q0.609375 -0.234375 0.90625 -0.640625q0.296875 -0.421875 0.296875 -0.90625q0 -0.5 -0.296875 -0.859375q-0.28125 -0.375 -0.9375 -0.625q-0.421875 -0.171875 -1.875 -0.515625q-1.4375 -0.34375 -2.015625 -0.65625q-0.75 -0.390625 -1.125 -0.96875q-0.359375 -0.59375 -0.359375 -1.3125q0 -0.796875 0.4375 -1.484375q0.453125 -0.6875 1.3125 -1.046875q0.875 -0.359375 1.9375 -0.359375q1.171875 0 2.0625 0.375q0.890625 0.375 1.359375 1.109375q0.484375 0.734375 0.515625 1.65625l-1.328125 0.09375q-0.109375 -1.0 -0.734375 -1.5q-0.609375 -0.515625 -1.8125 -0.515625q-1.265625 0 -1.84375 0.46875q-0.578125 0.46875 -0.578125 1.109375q0 0.5625 0.421875 0.9375q0.390625 0.359375 2.078125 0.75q1.703125 0.375 2.328125 0.65625q0.921875 0.421875 1.359375 1.078125q0.4375 0.640625 0.4375 1.484375q0 0.84375 -0.484375 1.59375q-0.484375 0.734375 -1.390625 1.140625q-0.890625 0.40625 -2.015625 0.40625q-1.421875 0 -2.390625 -0.40625q-0.953125 -0.421875 -1.5 -1.25q-0.546875 -0.828125 -0.578125 -1.890625zm12.900604 2.21875l0.1875 1.140625q-0.546875 0.109375 -0.984375 0.109375q-0.6875 0 -1.078125 -0.21875q-0.390625 -0.21875 -0.546875 -0.578125q-0.15625 -0.359375 -0.15625 -1.515625l0 -4.375l-0.953125 0l0 -1.0l0.953125 0l0 -1.890625l1.28125 -0.765625l0 2.65625l1.296875 0l0 1.0l-1.296875 0l0 4.4375q0 0.546875 0.0625 0.71875q0.078125 0.15625 0.21875 0.25q0.15625 0.078125 0.453125 0.078125q0.203125 0 0.5625 -0.046875zm6.2125854 0.21875q-0.71875 0.609375 -1.375 0.859375q-0.65625 0.25 -1.421875 0.25q-1.25 0 -1.921875 -0.609375q-0.671875 -0.609375 -0.671875 -1.5625q0 -0.5625 0.25 -1.015625q0.25 -0.46875 0.65625 -0.75q0.421875 -0.28125 0.9375 -0.421875q0.375 -0.09375 1.140625 -0.1875q1.5625 -0.1875 2.296875 -0.453125q0.015625 -0.265625 0.015625 -0.328125q0 -0.796875 -0.375 -1.109375q-0.484375 -0.4375 -1.453125 -0.4375q-0.921875 0 -1.359375 0.328125q-0.421875 0.3125 -0.625 1.109375l-1.265625 -0.171875q0.171875 -0.796875 0.5625 -1.296875q0.390625 -0.5 1.140625 -0.765625q0.75 -0.265625 1.71875 -0.265625q0.984375 0 1.59375 0.234375q0.609375 0.21875 0.890625 0.5625q0.28125 0.34375 0.40625 0.875q0.0625 0.328125 0.0625 1.1875l0 1.71875q0 1.796875 0.078125 2.28125q0.078125 0.46875 0.328125 0.90625l-1.34375 0q-0.203125 -0.40625 -0.265625 -0.9375zm-0.109375 -2.875q-0.703125 0.28125 -2.09375 0.484375q-0.796875 0.109375 -1.125 0.265625q-0.328125 0.140625 -0.515625 0.421875q-0.171875 0.265625 -0.171875 0.59375q0 0.515625 0.390625 0.859375q0.390625 0.34375 1.140625 0.34375q0.734375 0 1.3125 -0.3125q0.59375 -0.328125 0.859375 -0.890625q0.203125 -0.4375 0.203125 -1.296875l0 -0.46875zm4.494873 3.8125l-1.203125 0l0 -10.484375l1.296875 0l0 3.734375q0.8125 -1.015625 2.078125 -1.015625q0.703125 0 1.328125 0.28125q0.625 0.28125 1.03125 0.796875q0.40625 0.5 0.625 1.234375q0.234375 0.71875 0.234375 1.53125q0 1.96875 -0.96875 3.03125q-0.953125 1.0625 -2.3125 1.0625q-1.34375 0 -2.109375 -1.125l0 0.953125zm-0.015625 -3.859375q0 1.375 0.375 1.984375q0.609375 0.984375 1.640625 0.984375q0.84375 0 1.453125 -0.734375q0.625 -0.734375 0.625 -2.1875q0 -1.484375 -0.59375 -2.1875q-0.59375 -0.71875 -1.421875 -0.71875q-0.84375 0 -1.46875 0.734375q-0.609375 0.734375 -0.609375 2.125zm6.9479675 3.859375l0 -10.484375l1.28125 0l0 10.484375l-1.28125 0zm8.49054 -2.453125l1.328125 0.171875q-0.3125 1.171875 -1.171875 1.8125q-0.84375 0.640625 -2.171875 0.640625q-1.671875 0 -2.65625 -1.015625q-0.96875 -1.03125 -0.96875 -2.890625q0 -1.921875 0.984375 -2.96875q1.0 -1.0625 2.578125 -1.0625q1.515625 0 2.484375 1.03125q0.96875 1.03125 0.96875 2.921875q0 0.109375 -0.015625 0.34375l-5.65625 0q0.0625 1.25 0.703125 1.921875q0.640625 0.65625 1.59375 0.65625q0.703125 0 1.203125 -0.359375q0.5 -0.375 0.796875 -1.203125zm-4.234375 -2.078125l4.25 0q-0.09375 -0.953125 -0.484375 -1.4375q-0.625 -0.75 -1.609375 -0.75q-0.875 0 -1.484375 0.59375q-0.609375 0.59375 -0.671875 1.59375zm9.460693 4.53125l4.015625 -10.484375l1.5 0l4.296875 10.484375l-1.578125 0l-1.234375 -3.171875l-4.375 0l-1.15625 3.171875l-1.46875 0zm3.015625 -4.3125l3.5625 0l-1.09375 -2.90625q-0.5 -1.3125 -0.75 -2.171875q-0.203125 1.015625 -0.5625 2.0l-1.15625 3.078125zm6.8849792 4.3125l2.78125 -3.953125l-2.578125 -3.640625l1.609375 0l1.171875 1.78125q0.328125 0.5 0.53125 0.84375q0.3125 -0.46875 0.578125 -0.828125l1.28125 -1.796875l1.53125 0l-2.625 3.578125l2.828125 4.015625l-1.578125 0l-1.5625 -2.359375l-0.40625 -0.640625l-2.0 3.0l-1.5625 0zm8.1875 -9.015625l0 -1.46875l1.296875 0l0 1.46875l-1.296875 0zm0 9.015625l0 -7.59375l1.296875 0l0 7.59375l-1.296875 0zm2.7405396 -2.265625l1.265625 -0.203125q0.109375 0.765625 0.59375 1.171875q0.5 0.40625 1.375 0.40625q0.890625 0 1.3125 -0.359375q0.4375 -0.359375 0.4375 -0.84375q0 -0.4375 -0.375 -0.6875q-0.265625 -0.171875 -1.3125 -0.4375q-1.421875 -0.359375 -1.96875 -0.609375q-0.546875 -0.265625 -0.828125 -0.734375q-0.28125 -0.46875 -0.28125 -1.015625q0 -0.515625 0.21875 -0.9375q0.234375 -0.4375 0.640625 -0.734375q0.296875 -0.21875 0.8125 -0.359375q0.53125 -0.15625 1.125 -0.15625q0.890625 0 1.5625 0.265625q0.671875 0.25 1.0 0.6875q0.328125 0.4375 0.4375 1.171875l-1.25 0.171875q-0.09375 -0.578125 -0.5 -0.90625q-0.40625 -0.34375 -1.15625 -0.34375q-0.890625 0 -1.28125 0.296875q-0.375 0.296875 -0.375 0.6875q0 0.25 0.15625 0.453125q0.15625 0.203125 0.5 0.34375q0.1875 0.078125 1.140625 0.328125q1.359375 0.359375 1.890625 0.59375q0.546875 0.234375 0.859375 0.6875q0.3125 0.4375 0.3125 1.09375q0 0.640625 -0.375 1.21875q-0.375 0.5625 -1.09375 0.875q-0.703125 0.3125 -1.59375 0.3125q-1.484375 0 -2.265625 -0.609375q-0.765625 -0.625 -0.984375 -1.828125z" fill-rule="nonzero"/></g></svg>